<svg width="1600" height="900" viewBox="0 0 1600 900" fill="none" xmlns="http://www.w3.org/2000/svg">
  <rect width="1600" height="900" fill="#15120F"/>
  <rect x="52" y="52" width="1496" height="796" rx="28" fill="url(#bg)"/>
  <rect x="112" y="112" width="1376" height="676" rx="22" fill="#191510" stroke="#C29A2C" stroke-opacity="0.24"/>
  <path d="M1008 112H1488V788H1008C1124 685 1188 551 1188 448C1188 345 1124 215 1008 112Z" fill="url(#glow)" fill-opacity="0.95"/>
  <path d="M190 232H760" stroke="#C29A2C" stroke-opacity="0.5" stroke-width="2"/>
  <path d="M190 278H684" stroke="#F4E4C6" stroke-opacity="0.2" stroke-width="2"/>
  <path d="M190 324H628" stroke="#F4E4C6" stroke-opacity="0.2" stroke-width="2"/>
  <path d="M190 626H766" stroke="#F4E4C6" stroke-opacity="0.18" stroke-width="2"/>
  <path d="M190 672H618" stroke="#F4E4C6" stroke-opacity="0.18" stroke-width="2"/>
  <circle cx="1105" cy="264" r="78" fill="#E8C266" fill-opacity="0.14"/>
  <circle cx="1105" cy="264" r="49" fill="#E8C266" fill-opacity="0.2"/>
  <circle cx="1105" cy="264" r="18" fill="#E8C266"/>
  <circle cx="1260" cy="390" r="62" fill="#D6A73B" fill-opacity="0.12"/>
  <circle cx="1260" cy="390" r="14" fill="#E8C266"/>
  <circle cx="1178" cy="538" r="87" fill="#D6A73B" fill-opacity="0.12"/>
  <circle cx="1178" cy="538" r="20" fill="#E8C266"/>
  <path d="M1116 275L1245 380L1190 526" stroke="#E8C266" stroke-width="3" stroke-linecap="round" stroke-linejoin="round" stroke-opacity="0.8"/>
  <rect x="190" y="438" width="358" height="118" rx="18" fill="#1E1914" stroke="#C29A2C" stroke-opacity="0.18"/>
  <text x="188" y="214" fill="#C29A2C" font-family="'DM Mono', monospace" font-size="24" letter-spacing="6">WORKSHOP PROJECT</text>
  <text x="188" y="390" fill="#F4E4C6" font-family="'Cormorant Garamond', serif" font-size="88" font-weight="700">The Architecture</text>
  <text x="188" y="470" fill="#D6A73B" font-family="'Cormorant Garamond', serif" font-size="88" font-style="italic" font-weight="700">of High-Performance</text>
  <text x="188" y="550" fill="#F4E4C6" font-family="'Cormorant Garamond', serif" font-size="88" font-weight="700">Learning</text>
  <defs>
    <linearGradient id="bg" x1="84" y1="84" x2="1512" y2="816" gradientUnits="userSpaceOnUse">
      <stop stop-color="#1F1913"/>
      <stop offset="1" stop-color="#0F0D0A"/>
    </linearGradient>
    <radialGradient id="glow" cx="0" cy="0" r="1" gradientUnits="userSpaceOnUse" gradientTransform="translate(1258 450) rotate(90) scale(338 340)">
      <stop stop-color="#3E2D12"/>
      <stop offset="1" stop-color="#17120E" stop-opacity="0"/>
    </radialGradient>
  </defs>
</svg>
